PathFileType	4	(X/Y/Z)	G:\Shared drives\HIT\Data\HapticPilot\Subject1\Edited\walking_FB1_noFB1.trc
DataRate	CameraRate	NumFrames	NumMarkers	Units	OrigDataRate	OrigDataStartFrame	OrigNumFrames
50.00	50.00	      7	34	mm	50.00	2362	      3148
Frame#	Time	r_knee			r_shank(antsup)			r_ankle			r_calc			r_5meta			r_toe			L_knee			L_shank(ant_sup)			L_ankle			L_calc			L_5meta			L_toe			r_sh2			r_sh3			r_sh4			L_sh2			L_sh3			r_thigh1			r_thigh2			r_thigh3			r_thigh4			r_thigh5			L_thigh1			L_thigh2			L_thigh3			L_thigh4			r.ASIS			r.PSIS			L.ASIS			L.PSIS			C7			R_Shoulder			L_Shoulder			Sternum			
		X1	Y1	Z1	X2	Y2	Z2	X3	Y3	Z3	X4	Y4	Z4	X5	Y5	Z5	X6	Y6	Z6	X7	Y7	Z7	X8	Y8	Z8	X9	Y9	Z9	X10	Y10	Z10	X11	Y11	Z11	X12	Y12	Z12	X13	Y13	Z13	X14	Y14	Z14	X15	Y15	Z15	X16	Y16	Z16	X17	Y17	Z17	X18	Y18	Z18	X19	Y19	Z19	X20	Y20	Z20	X21	Y21	Z21	X22	Y22	Z22	X23	Y23	Z23	X24	Y24	Z24	X25	Y25	Z25	X26	Y26	Z26	X27	Y27	Z27	X28	Y28	Z28	X29	Y29	Z29	X30	Y30	Z30	X31	Y31	Z31	X32	Y32	Z32	X33	Y33	Z33	X34	Y34	Z34	

2362	47.220	1023.04199	374.60306	572.21405	1047.20862	373.64639	482.19177	1003.11743	420.98630	104.63449	917.64124	476.57666	68.49181	1117.51758	407.87900	39.41193	1153.51318	467.93390	80.66194	986.27869	705.90271	552.77515	941.03149	700.13580	444.16992	636.24579	677.21265	270.99527	565.77698	637.31018	326.32098	677.30157	613.81616	118.75626	627.28461	674.30182	125.07221	1045.45251	383.65787	362.45157	971.30603	374.98962	480.67380	961.47644	381.50812	365.48148	893.59631	712.59644	520.40527	797.16638	706.33246	444.77686	977.89093	344.04987	899.54742	1020.32422	345.27972	793.79474	987.46912	341.40619	743.75104	874.46826	342.37204	853.15045	923.26971	355.00891	747.00732	1007.70435	713.00867	829.72284	1047.88232	715.32886	696.93414	892.75128	712.71454	797.69696	939.04108	706.69318	667.76709	962.94623	397.00580	1082.23096	774.50482	488.39453	1091.68799	972.90161	650.98279	1078.63953	781.57928	569.51996	1086.91492	882.19647	528.85980	1588.97437	933.70746	361.84329	1553.23047	945.15247	708.15851	1535.76392	1017.44135	523.76978	1502.34973	
2363	47.240	1010.60559	374.85440	571.73450	1033.06714	374.61514	481.00177	979.35919	422.07187	105.05994	892.88953	476.77383	69.88225	1093.10229	408.20584	39.70644	1129.45081	468.94785	79.13849	1006.73651	707.56189	562.31769	965.94592	700.06854	451.25250	662.59784	676.83704	275.68771	587.83063	640.02191	328.27603	710.70709	608.51740	128.29222	661.76227	670.03406	129.78160	1028.71094	384.71582	361.41254	957.17883	374.27411	481.30475	944.89087	381.59668	366.00592	918.11029	717.64740	526.40302	822.35992	710.53473	449.78519	974.40088	343.45135	900.16022	1011.07904	344.68335	793.61206	978.19653	340.92233	744.70013	868.60919	341.79764	856.39099	914.81702	354.13031	749.21912	1013.40448	713.35638	837.64435	1059.31543	715.81555	707.17908	900.56006	710.60437	801.01331	952.01044	705.99719	673.34277	961.65106	394.32077	1084.90857	773.22577	486.71991	1095.00476	970.38318	648.62921	1082.93762	780.05774	567.70886	1090.19177	879.96198	526.89203	1592.60999	932.26190	360.02039	1556.68152	940.94641	707.20038	1538.59399	1015.70837	522.80981	1506.14966	
2364	47.260	995.28876	375.62595	571.13525	1016.51508	375.87024	480.34573	955.58545	423.52414	105.70298	868.35706	476.97992	70.85927	1068.28113	408.73663	39.88636	1105.19092	469.75354	78.18097	1027.07190	708.82391	571.79144	989.34802	699.78967	458.38733	689.51465	676.49786	275.45834	611.43591	640.11475	323.75458	747.80872	606.63269	132.84222	697.93610	667.17432	129.92621	1010.28284	385.95963	360.71210	940.68701	375.14926	481.84586	926.41864	382.48938	366.80264	939.71149	722.27570	531.47668	845.86066	714.25439	452.80795	968.60852	342.92007	901.28259	1003.45850	345.08984	793.04852	969.04828	340.96130	745.39154	862.94580	340.82172	860.51355	905.67029	354.26120	751.89252	1019.14752	712.39063	846.59399	1070.45166	715.39984	717.75653	907.32343	710.77820	804.58459	964.46191	706.57404	679.65332	960.21417	391.92819	1088.11633	772.23596	484.83768	1099.39478	970.26373	645.84918	1088.61023	778.52002	566.28302	1095.31250	877.52612	525.26050	1596.62683	930.48541	358.66016	1561.10168	936.81158	706.12488	1542.47498	1013.41132	521.77502	1510.44287	
2365	47.280	978.90332	376.33942	571.23071	998.01868	376.56995	479.96121	930.40863	423.83749	106.51395	843.49365	477.82452	71.60776	1043.32654	409.11493	39.86939	1080.46484	470.28012	77.61013	1045.51941	709.37720	580.28339	1010.93939	699.18854	465.89108	717.88220	675.32666	269.82321	637.39496	638.40588	313.12357	787.51569	606.20038	132.78436	736.46429	665.43793	125.54916	989.73969	386.45795	360.39108	922.01453	376.32214	482.61847	906.06213	383.61383	367.98807	958.48407	725.78894	535.96344	868.40918	716.89502	453.20578	964.67920	343.74908	901.75555	992.80273	345.03452	792.51428	959.34491	341.05774	746.30664	856.78131	339.82645	864.87134	895.99792	354.24704	755.06067	1024.32849	711.34528	856.58417	1081.51587	714.75433	730.14386	915.31543	711.89227	809.96179	977.24310	708.40851	687.33789	958.58246	390.33023	1091.27710	771.09338	483.74594	1104.66321	968.12634	644.02185	1093.50098	777.48975	565.36780	1101.40491	875.09564	523.65796	1600.84985	928.85834	357.39569	1566.04858	933.13574	705.04388	1546.95874	1011.34058	520.88214	1514.95569	
2366	47.300	961.22772	377.18112	571.56421	977.38660	377.26129	479.72537	905.72302	424.23108	107.06145	818.32520	477.92834	72.36785	1018.21667	409.27380	39.85844	1055.70215	470.31256	77.23875	1058.92908	708.96533	590.86261	1030.05017	698.97565	473.52560	749.71350	674.40588	260.08972	665.72198	636.37567	297.06650	829.79486	606.76953	128.68040	778.61121	665.29742	117.63181	967.78485	386.08240	360.62283	901.79395	377.60043	483.79745	884.22449	384.65912	369.29480	973.98846	726.70929	539.24756	889.26898	717.09265	451.32333	959.03119	344.05109	902.75397	987.95880	346.28247	792.57477	949.14215	340.99521	747.57471	850.44794	339.79633	869.16949	885.65759	354.47498	758.06219	1029.90857	710.14282	867.62823	1092.29871	713.65894	743.89008	921.83331	714.13995	816.26306	988.23907	711.19543	696.09387	958.00562	389.26093	1094.35083	770.42487	482.81802	1109.98804	966.53888	642.74615	1098.50293	776.57184	564.60590	1107.06372	872.91626	522.24323	1604.96045	927.52667	356.43869	1571.07007	929.79877	703.82965	1551.55383	1009.19604	520.19098	1519.36584	
2367	47.320	942.74481	377.44989	572.30676	956.87842	376.59161	480.51761	881.11237	424.27328	107.64819	793.68640	478.33716	73.07250	993.25787	409.35620	39.78841	1031.23486	470.54810	76.70825	1069.55994	708.44220	600.32782	1047.85962	698.93188	480.48599	783.52899	674.09668	247.40262	696.89130	634.48199	276.29053	874.78107	608.55219	121.94630	824.57648	666.68530	107.53803	945.58276	385.76563	361.17419	881.09052	378.02933	485.21973	862.12384	385.09000	370.92291	986.14996	726.15521	542.07379	908.06567	716.25110	448.04688	952.82654	344.67395	903.86621	978.06836	347.12958	792.59161	938.18091	340.83987	748.84735	843.25739	339.51486	873.65826	874.69952	354.84473	761.80542	1033.47852	708.72876	877.32776	1099.76440	712.28168	755.55389	927.55188	717.91608	822.80994	997.66431	714.84705	705.32825	955.87793	388.71548	1096.77075	769.33051	482.41235	1114.73792	965.31177	641.99127	1103.37256	775.61475	564.31232	1111.89148	870.96033	520.89935	1608.60120	926.46588	355.56253	1575.63806	927.00818	702.75122	1555.77869	1007.20087	519.48779	1523.63867	
2368	47.340	923.27490	378.25070	572.90814	935.94672	376.63953	481.34503	856.81158	424.38327	108.21539	769.12323	478.62097	73.77094	968.44574	409.35062	39.71992	1006.40070	470.35703	76.31936	1077.46606	708.42426	608.31036	1062.40784	699.93182	486.92160	819.23291	673.60529	231.37988	730.86115	631.85822	251.68945	923.32452	612.02386	114.64858	873.00769	669.36359	96.66263	923.45007	385.50970	362.09552	860.31549	378.01239	486.94995	840.08350	385.11688	372.81982	995.48834	723.66571	543.98834	925.60040	714.65735	443.60373	946.10211	345.49625	904.58173	967.77502	347.96390	792.63330	926.40509	340.69894	749.84503	835.77081	339.54529	878.09143	863.15265	355.46680	765.07220	1036.42322	707.07092	885.62817	1106.05640	710.81824	764.93335	933.81244	720.57269	828.54858	1005.37256	717.22131	713.24286	954.41846	388.46823	1098.88293	767.91132	482.69183	1118.84692	964.18854	641.42236	1107.67004	774.59290	564.30182	1115.84863	869.27808	519.56567	1611.80713	925.49438	354.84015	1579.48792	924.16858	701.96899	1559.60376	1005.36267	518.79065	1527.34204	
